# xmcd
#
# Track frame offsets: 
#        183
#        14068
#        25910
#        45633
#        61768
#        77935
#        95925
#        115768
#        128545
#        152315
#        165950
#        180613
#        197250
#        219988
#
# Disc length: 2989 seconds
#
# Revision: 0
# Processed by: cddbd v1.4PL0 Copyright (c) Steve Scherf et al.
# Submitted via: ExactAudioCopy v0.90b4
#
DISCID=a80bab0e
DTITLE=The Golden Gate Quartet - The Church Concert
DYEAR=1984
DGENRE=Gospel
TTITLE0=Behold The Bridegroom Cometh
TTITLE1=Joshua Fit The Battle Of Jericho
TTITLE2=Sometimes I Feel Like A Motherless Child
TTITLE3=Jezebel
TTITLE4=Michael (Micheal)
TTITLE5=Swing Down Chariot
TTITLE6=He Never Said A Mumbalin' World (The Crucifixion)
TTITLE7=Samson
TTITLE8=Sweet Our Prayer
TTITLE9=He's Gto The Whole World In His Hands
TTITLE10=Shadrack
TTITLE11=Go Tell It On The Mountain
TTITLE12=Oh Happy Day
TTITLE13=When The Saints Go Marching On
EXTD=
EXTT0=
EXTT1=
EXTT2=
EXTT3=
EXTT4=
EXTT5=
EXTT6=
EXTT7=
EXTT8=
EXTT9=
EXTT10=
EXTT11=
EXTT12=
EXTT13=
PLAYORDER=
